<?xml version="1.0" encoding="UTF-8"?>
<!DOCTYPE svg PUBLIC "-//W3C//DTD SVG 1.1//EN" "http://www.w3.org/Graphics/SVG/1.1/DTD/svg11.dtd">
<svg xmlns="http://www.w3.org/2000/svg" version="1.1" width="48px" height="48px" style="shape-rendering:geometricPrecision; text-rendering:geometricPrecision; image-rendering:optimizeQuality; fill-rule:evenodd; clip-rule:evenodd" xmlns:xlink="http://www.w3.org/1999/xlink">
<g><path style="opacity:0.949" fill="#E7E9CE" d="M 0.5,-0.5 C 7.16667,-0.5 13.8333,-0.5 20.5,-0.5C 22.8217,6.66626 23.155,13.9996 21.5,21.5C 14.1667,21.5 6.83333,21.5 -0.5,21.5C -0.5,14.5 -0.5,7.5 -0.5,0.5C 0.166667,0.5 0.5,0.166667 0.5,-0.5 Z"/></g>
<g><path style="opacity:0.783" fill="#E7E9CE" d="M 33.5,-0.5 C 35.5,-0.5 37.5,-0.5 39.5,-0.5C 39.5,2.16667 39.5,4.83333 39.5,7.5C 42.1667,7.5 44.8333,7.5 47.5,7.5C 47.5,9.5 47.5,11.5 47.5,13.5C 44.8333,13.5 42.1667,13.5 39.5,13.5C 39.5,16.1667 39.5,18.8333 39.5,21.5C 37.5,21.5 35.5,21.5 33.5,21.5C 33.5,18.8333 33.5,16.1667 33.5,13.5C 30.8127,13.6641 28.146,13.4974 25.5,13C 24.1667,11.3333 24.1667,9.66667 25.5,8C 28.146,7.50258 30.8127,7.33591 33.5,7.5C 33.5,4.83333 33.5,2.16667 33.5,-0.5 Z"/></g>
<g><path style="opacity:0.945" fill="#E7E9CE" d="M 47.5,25.5 C 47.5,32.5 47.5,39.5 47.5,46.5C 46.8333,46.5 46.5,46.8333 46.5,47.5C 39.5,47.5 32.5,47.5 25.5,47.5C 25.1694,40.1365 25.5027,32.8032 26.5,25.5C 33.4995,24.2036 40.4995,24.2036 47.5,25.5 Z"/></g>
<g><path style="opacity:0.951" fill="#E7E9CE" d="M -0.5,25.5 C 6.83333,25.5 14.1667,25.5 21.5,25.5C 22.8333,32.8333 22.8333,40.1667 21.5,47.5C 14.1667,47.5 6.83333,47.5 -0.5,47.5C -0.5,40.1667 -0.5,32.8333 -0.5,25.5 Z"/></g>
</svg>
